<?xml version="1.0" encoding="UTF-8" standalone="no"?>
<!-- Generator: Adobe Illustrator 19.0.0, SVG Export Plug-In . SVG Version: 6.00 Build 0)  -->

<svg
   xmlns:dc="http://purl.org/dc/elements/1.1/"
   xmlns:cc="http://creativecommons.org/ns#"
   xmlns:rdf="http://www.w3.org/1999/02/22-rdf-syntax-ns#"
   xmlns:svg="http://www.w3.org/2000/svg"
   xmlns="http://www.w3.org/2000/svg"
   xmlns:sodipodi="http://sodipodi.sourceforge.net/DTD/sodipodi-0.dtd"
   xmlns:inkscape="http://www.inkscape.org/namespaces/inkscape"
   version="1.1"
   id="Layer_1"
   x="0px"
   y="0px"
   viewBox="0 0 297.001 297.001"
   style="enable-background:new 0 0 297.001 297.001;"
   xml:space="preserve"
   sodipodi:docname="favorite.svg"
   inkscape:version="0.92.2 (5c3e80d, 2017-08-06)"><metadata
     id="metadata51"><rdf:RDF><cc:Work
         rdf:about=""><dc:format>image/svg+xml</dc:format><dc:type
           rdf:resource="http://purl.org/dc/dcmitype/StillImage" /><dc:title /></cc:Work></rdf:RDF></metadata><defs
     id="defs49" /><sodipodi:namedview
     pagecolor="#ffffff"
     bordercolor="#666666"
     borderopacity="1"
     objecttolerance="10"
     gridtolerance="10"
     guidetolerance="10"
     inkscape:pageopacity="0"
     inkscape:pageshadow="2"
     inkscape:window-width="1842"
     inkscape:window-height="1051"
     id="namedview47"
     showgrid="false"
     inkscape:zoom="0.7946101"
     inkscape:cx="-61.665467"
     inkscape:cy="148.5005"
     inkscape:window-x="-9"
     inkscape:window-y="-9"
     inkscape:window-maximized="1"
     inkscape:current-layer="g14" /><g
     id="g14"><g
       id="g8"><g
         id="g6"><g
           id="g4"
           style="fill:#9e3314;fill-opacity:1"><circle
             style="fill:#9e3314;fill-opacity:1"
             cx="148.5"
             cy="148.5"
             r="148.5"
             id="circle2" /></g></g></g><path
       style="fill:#601f0b;fill-opacity:1"
       d="M244.128,117.086L85.322,240.454l56.342,56.384c2.267,0.103,4.544,0.163,6.837,0.163   c75.197,0,137.329-55.894,147.141-128.401L244.128,117.086z"
       id="path10" /><path
       style="fill:#ffcd02;stroke-width:0.99454409"
       d="m 247.72032,124.34885 c -2.15608,-6.64797 -7.75295,-11.59264 -14.60471,-12.90471 L 187.60146,102.72651 165.26369,62.0522 c -3.36428,-6.124341 -9.78781,-9.930152 -16.76377,-9.930152 -6.97696,0 -13.40048,3.804816 -16.76377,9.930152 l -22.33778,40.67431 -45.513147,8.71763 c -6.852756,1.31207 -12.449621,6.25674 -14.605701,12.90471 -2.156079,6.64898 -0.52958,13.94502 4.243602,19.044 l 31.706293,33.85609 -5.78962,46.06396 c -0.871374,6.93469 2.094477,13.7947 7.739034,17.90315 5.644557,4.11043 13.073589,4.81326 19.385839,1.84069 l 41.93525,-19.7518 41.93525,19.7518 c 2.59127,1.22148 5.37033,1.82077 8.13746,1.82077 3.97235,0 7.92086,-1.2394 11.24738,-3.66146 5.64456,-4.10845 8.61041,-10.96946 7.73904,-17.90514 l -5.79062,-46.06296 31.70729,-33.85709 c 4.77517,-5.09699 6.40068,-12.39303 4.2446,-19.04201 z"
       id="path12"
       inkscape:connector-curvature="0" /></g><g
     id="g16" /><g
     id="g18" /><g
     id="g20" /><g
     id="g22" /><g
     id="g24" /><g
     id="g26" /><g
     id="g28" /><g
     id="g30" /><g
     id="g32" /><g
     id="g34" /><g
     id="g36" /><g
     id="g38" /><g
     id="g40" /><g
     id="g42" /><g
     id="g44" /></svg>