<?xml version="1.0" encoding="UTF-8" standalone="no"?>
<!-- Generator: Adobe Illustrator 19.0.0, SVG Export Plug-In . SVG Version: 6.00 Build 0)  -->

<svg
   xmlns:dc="http://purl.org/dc/elements/1.1/"
   xmlns:cc="http://creativecommons.org/ns#"
   xmlns:rdf="http://www.w3.org/1999/02/22-rdf-syntax-ns#"
   xmlns:svg="http://www.w3.org/2000/svg"
   xmlns="http://www.w3.org/2000/svg"
   xmlns:sodipodi="http://sodipodi.sourceforge.net/DTD/sodipodi-0.dtd"
   xmlns:inkscape="http://www.inkscape.org/namespaces/inkscape"
   version="1.1"
   id="Layer_1"
   x="0px"
   y="0px"
   viewBox="0 0 297.001 297.001"
   style="enable-background:new 0 0 297.001 297.001;"
   xml:space="preserve"
   sodipodi:docname="make_favorite.svg"
   inkscape:version="0.92.2 (5c3e80d, 2017-08-06)"><metadata
     id="metadata51"><rdf:RDF><cc:Work
         rdf:about=""><dc:format>image/svg+xml</dc:format><dc:type
           rdf:resource="http://purl.org/dc/dcmitype/StillImage" /><dc:title /></cc:Work></rdf:RDF></metadata><defs
     id="defs49" /><sodipodi:namedview
     pagecolor="#ffffff"
     bordercolor="#666666"
     borderopacity="1"
     objecttolerance="10"
     gridtolerance="10"
     guidetolerance="10"
     inkscape:pageopacity="0"
     inkscape:pageshadow="2"
     inkscape:window-width="1842"
     inkscape:window-height="1051"
     id="namedview47"
     showgrid="false"
     inkscape:zoom="0.7946101"
     inkscape:cx="-61.665467"
     inkscape:cy="148.5005"
     inkscape:window-x="-9"
     inkscape:window-y="-9"
     inkscape:window-maximized="1"
     inkscape:current-layer="g14" /><g
     id="g14"><g
       id="g8"><g
         id="g6"
         style="opacity:1"><g
           id="g4"
           style="fill:#9e3314;fill-opacity:1"><circle
             style="fill:#9e3314;fill-opacity:1"
             cx="148.5"
             cy="148.5"
             r="148.5"
             id="circle2" /></g></g></g><path
       style="fill:#601f0b;fill-opacity:1"
       d="M244.128,117.086L85.322,240.454l56.342,56.384c2.267,0.103,4.544,0.163,6.837,0.163   c75.197,0,137.329-55.894,147.141-128.401L244.128,117.086z"
       id="path10" /><path
       style="fill:#601f0b;fill-opacity:1;stroke:#ffcd02;stroke-width:13.86553574;stroke-miterlimit:4;stroke-dasharray:none;stroke-opacity:1"
       d="m 240.8556,126.08627 c -2.00691,-6.16978 -7.21654,-10.75878 -13.59426,-11.97646 l -42.36516,-8.09057 -20.79229,-37.748556 c -3.13152,-5.683811 -9.11063,-9.215867 -15.60393,-9.215867 -6.49424,0 -12.47335,3.531131 -15.60395,9.215867 l -20.79229,37.748556 -42.364216,8.09057 c -6.378634,1.21768 -11.588269,5.80668 -13.595177,11.97646 -2.006907,6.17071 -0.49294,12.94195 3.950001,17.67414 l 29.512631,31.4208 -5.389054,42.75054 c -0.811087,6.43585 1.949567,12.80242 7.203593,16.61535 5.254026,3.81477 12.169062,4.46703 18.044572,1.70828 l 39.03389,-18.33103 39.03387,18.33103 c 2.41199,1.13362 4.99876,1.6898 7.57447,1.6898 3.6975,0 7.37282,-1.15024 10.4692,-3.39808 5.25402,-3.81293 8.01468,-10.18041 7.20359,-16.6172 l -5.38997,-42.74961 29.51355,-31.42171 c 4.44479,-4.73036 5.95783,-11.5016 3.95093,-17.67231 z"
       id="path12"
       inkscape:connector-curvature="0" /></g><g
     id="g16" /><g
     id="g18" /><g
     id="g20" /><g
     id="g22" /><g
     id="g24" /><g
     id="g26" /><g
     id="g28" /><g
     id="g30" /><g
     id="g32" /><g
     id="g34" /><g
     id="g36" /><g
     id="g38" /><g
     id="g40" /><g
     id="g42" /><g
     id="g44" /></svg>